<?xml version="1.0" ?><svg id="katman_1" style="enable-background:new 0 0 512 512;" version="1.1" viewBox="0 0 512 512" xml:space="preserve" xmlns="http://www.w3.org/2000/svg" xmlns:xlink="http://www.w3.org/1999/xlink"><style type="text/css">
	.st0{fill:#3997D3;}
	.st1{fill:#2981BA;}
	.st2{fill:#FFFFFF;}
</style><g><g><circle class="st0" cx="256" cy="256" r="250"/></g><path class="st1" d="M492.2,337.9c-0.2-0.2-0.4-0.5-0.6-0.7c-66.5-66.5-132.9-133-199.4-199.4c-27.4-27.3-66.8-37.4-103.6-28   c-54.8,14-89.5,67.2-80.5,122.9c3.7,23,13.8,42.8,30.2,59.2c66.3,66.4,132.7,132.7,199,199.1c0.4,0.4,0.8,0.7,1.1,0.9   C410.4,467,467.3,409.9,492.2,337.9z"/><path class="st2" d="M396,347.7l-61.9-61.9c-1.4-1.4-3.4-2.3-5.5-2.3c-2,0-4,0.8-5.5,2.3L310,299.1l-13-13   c17.2-19.8,26.6-44.8,26.6-71.3c0-29.1-11.3-56.4-31.9-77c-42.4-42.4-111.5-42.4-153.9,0c-20.6,20.6-31.9,47.9-31.9,77   c0,29.1,11.3,56.4,31.9,77c21.2,21.2,49.1,31.8,77,31.8c25.5,0,50.9-8.9,71.3-26.6l13,13l-13.2,13.2c-1.4,1.4-2.3,3.4-2.3,5.5   s0.8,4,2.3,5.5l61.9,61.9c6.4,6.4,15,10,24.1,10c9.1,0,17.7-3.5,24.1-10c6.4-6.4,10-15,10-24.1C406,362.7,402.5,354.2,396,347.7z    M280.9,280.8c-36.4,36.4-95.7,36.4-132.1,0c-17.6-17.6-27.4-41.1-27.4-66s9.7-48.4,27.4-66c18.2-18.2,42.1-27.3,66-27.3   c23.9,0,47.8,9.1,66,27.3c17.6,17.6,27.4,41.1,27.4,66S298.5,263.2,280.9,280.8z M302.3,328.6l26.4-26.4l11,11l-26.4,26.4   L302.3,328.6z M385.1,385.1c-3.5,3.5-8.2,5.5-13.2,5.5c-5,0-9.7-1.9-13.2-5.5l-34.5-34.5l26.4-26.4l34.5,34.5   c3.5,3.5,5.5,8.2,5.5,13.2C390.6,376.8,388.6,381.5,385.1,385.1z"/></g></svg>