<svg id="Layer_1" data-name="Layer 1" xmlns="http://www.w3.org/2000/svg" viewBox="0 0 512 512"><title>windy</title><path d="M0,256C0,114.61,114.61,0,256,0S512,114.63,512,256,397.38,512,256,512,0,397.39,0,256Z" fill="#00c7ff"/><path d="M212.83,212.8H316.46a8.62,8.62,0,1,0,0-17.24H212.83a8.62,8.62,0,1,0,0,17.24Z" fill="#fff"/><path d="M325.1,264.62H143.78a8.64,8.64,0,0,0,0,17.29H315c24.62,0,44.6,15.47,44.6,34.52S344.87,351,307.81,351v17.29H325.1a51.81,51.81,0,0,0,0-103.63Z" fill="#fff"/><path d="M256,299.14H187a8.64,8.64,0,0,0,0,17.29h69A17.26,17.26,0,1,1,256,351v17.29a34.55,34.55,0,0,0,0-69.1Z" fill="#fff"/><path d="M169.66,247.38H325.1a51.81,51.81,0,0,0,0-103.63V161c24.36,4.54,34.52,15.42,34.52,34.52s-20,34.52-44.6,34.52H169.66a8.64,8.64,0,0,0,0,17.29Z" fill="#fff"/></svg>